
<svg width="128" height="128" viewBox="0 0 318 300" fill="none" xmlns="http://www.w3.org/2000/svg">
<rect width="317.832" height="300" rx="34" fill="black"/>
<path d="M169.548 192.75L178.603 109.125C178.603 102.375 176.842 96.75 173.321 92.25C169.799 87.75 163.888 85.5 155.588 85.5C147.539 85.5 140.622 89.125 134.836 96.375C129.303 103.375 125.781 112.25 124.272 123C115.217 191.5 110.438 228.75 109.935 234.75H59L79.7513 58.125C90.3155 55.375 98.3645 54 103.898 54C120.751 54 129.554 60.125 130.309 72.375C142.634 60.375 157.348 54.375 174.452 54.375C191.808 54.375 205.391 58.625 215.2 67.125C225.01 75.625 229.915 86.375 229.915 99.375C229.915 102.875 229.16 109.5 227.651 119.25C221.866 157.25 218.973 179.375 218.973 185.625C218.973 197.125 222.872 202.875 230.669 202.875C247.774 202.875 260.727 185.125 269.531 149.625C278.083 158.625 283.239 165.75 285 171C271.669 215 248.528 237 215.578 237C199.983 237 188.412 232.25 180.866 222.75C173.321 213.25 169.548 203.25 169.548 192.75Z" fill="white"/>
</svg>
